<svg xmlns="http://www.w3.org/2000/svg" viewBox="0 0 300 512" preserveAspectRatio="xMinYMin meet">
  <path d="M24.7,153.8v280.3H77V320.4c0,0,0.1,0,0.1,0.1l0-5.6c0,0,0,0,0,0l0-1.8c17.9,17.3,40.4,29.3,65.3,33.4     c6,0.9,12.1,1.4,18.3,1.4l0,0c62-1.8,115.7-48,124.7-111.4c4.9-34.3-3.9-68.5-24.7-96.2c-20.8-27.7-51.2-45.7-85.4-50.6     c-34.3-4.9-68.5,3.9-96.2,24.7c-3.4,2.5-6.6,5.2-9.7,8L32.8,93L0,133.8L24.7,153.8z M157.7,136c35.9,0,66.4,23.2,77.3,55.5     c2.8,8.2,4.3,17,4.3,26.2c0,37.6-25.5,69.3-60.2,78.6c-6.8,1.9-14,2.8-21.4,2.8c-14,0-27.1-3.5-38.6-9.7     c-10.4-5.5-19.5-13.2-26.7-22.9c-8.3-11-13.5-23.7-15.3-37v0c-0.6-3.9-0.9-7.8-0.9-11.9C76.2,172.5,112.7,136,157.7,136z"/>
</svg>